<svg width="135" height="42" viewBox="0 0 135 42" fill="none" xmlns="http://www.w3.org/2000/svg">
  <path
    d="M63.248 12.686c0 3.772-2.698 6.657-6.242 6.657h-5.139V6.029h5.139c3.544 0 6.242 2.892 6.242 6.657zm-2.832 0c0-2.28-1.396-3.727-3.414-3.727h-2.205v7.453h2.2c2.028 0 3.423-1.442 3.423-3.726h-.004zM70.312 9.641v3.237c-1.137-.193-2.751.285-2.751 2.167v4.3h-2.755v-9.51h2.755v1.676c.364-1.258 1.594-1.87 2.751-1.87zM70.13 17.804c0-.357.102-.707.294-1.004a1.76 1.76 0 0 1 .782-.665c.32-.137.67-.173 1.008-.103.338.07.649.242.893.494.244.253.41.575.477.925.067.35.033.714-.1 1.044-.131.33-.355.613-.641.811a1.7 1.7 0 0 1-.97.305 1.726 1.726 0 0 1-1.229-.533 1.853 1.853 0 0 1-.514-1.274zM79.581 17.024l2.553-1.521c.148.364.403.67.73.875.326.205.706.298 1.087.265 1.286 0 1.67-.759 1.67-1.576V6.029h2.938v9.038c0 2.934-1.983 4.544-4.629 4.544-2.027 0-3.503-.893-4.349-2.587zM90.027 14.588c0-.994.285-1.967.818-2.794a4.897 4.897 0 0 1 2.18-1.853 4.698 4.698 0 0 1 2.804-.286 4.805 4.805 0 0 1 2.486 1.376 5.09 5.09 0 0 1 1.329 2.576 5.2 5.2 0 0 1-.276 2.907 4.997 4.997 0 0 1-1.789 2.257 4.736 4.736 0 0 1-2.697.848 4.663 4.663 0 0 1-1.865-.37 4.804 4.804 0 0 1-1.581-1.09 5 5 0 0 1-1.051-1.638 5.143 5.143 0 0 1-.358-1.933zm6.975 0a2.241 2.241 0 0 0-.381-1.2 2.125 2.125 0 0 0-.958-.782 2.043 2.043 0 0 0-1.216-.102c-.406.09-.778.303-1.068.61-.29.309-.486.699-.563 1.122-.077.423-.033.86.129 1.256.16.397.431.736.778.974a2.06 2.06 0 0 0 1.167.365c.284.008.567-.045.83-.156.263-.11.501-.276.7-.487.198-.21.352-.461.452-.736.1-.276.145-.57.13-.864zM108.253 16.491c0 2.189-1.836 3.12-3.819 3.12-1.837 0-3.236-.722-3.944-2.264l2.383-1.409c.095.345.303.645.588.85.284.204.628.301.973.273.66 0 .991-.21.991-.59 0-1.044-4.515-.495-4.515-3.773 0-2.071 1.687-3.12 3.597-3.12a3.912 3.912 0 0 1 2.059.513 4.096 4.096 0 0 1 1.522 1.525l-2.351 1.312a1.375 1.375 0 0 0-.486-.607 1.302 1.302 0 0 0-.728-.231c-.477 0-.768.193-.768.532-.005 1.073 4.498.348 4.498 3.87zM109.354 7.286c0-.338.097-.67.278-.95.181-.282.439-.5.741-.63.301-.13.633-.164.954-.098.32.066.614.23.845.468.231.24.388.544.451.876.064.332.031.676-.093.988-.125.313-.337.58-.608.768a1.612 1.612 0 0 1-.917.288 1.64 1.64 0 0 1-1.163-.506 1.756 1.756 0 0 1-.488-1.204zm.275 2.549h2.751v9.511h-2.751V9.835zM123.818 9.834v9.512h-2.756v-.893a3.43 3.43 0 0 1-1.24.901c-.474.201-.984.29-1.495.26-2.403 0-4.385-2.188-4.385-5.03s1.982-5.03 4.385-5.03a3.34 3.34 0 0 1 1.494.261c.473.2.897.508 1.241.9v-.893l2.756.012zm-2.756 4.754a2.315 2.315 0 0 0-.395-1.241 2.2 2.2 0 0 0-.992-.808 2.112 2.112 0 0 0-1.257-.105c-.42.094-.804.314-1.104.633-.3.319-.503.722-.582 1.16-.08.437-.034.889.133 1.3.167.41.447.76.805 1.006a2.13 2.13 0 0 0 1.208.378c.295.014.59-.037.865-.149.276-.112.525-.284.731-.503a2.22 2.22 0 0 0 .588-1.67zM132.88 16.491c0 2.189-1.833 3.12-3.815 3.12-1.837 0-3.237-.722-3.949-2.265l2.387-1.408c.096.345.304.645.588.85.285.204.629.301.974.273.659 0 .991-.21.991-.59 0-1.044-4.515-.495-4.515-3.773 0-2.071 1.687-3.12 3.597-3.12a3.932 3.932 0 0 1 2.056.517c.63.358 1.155.883 1.524 1.521l-2.35 1.312a1.37 1.37 0 0 0-.487-.606 1.303 1.303 0 0 0-.727-.232c-.478 0-.773.193-.773.532-.032 1.073 4.499.348 4.499 3.87zM51.257 28.305c-.021-.818.12-1.63.412-2.39a6.042 6.042 0 0 1 1.29-2.027 5.796 5.796 0 0 1 1.958-1.334 5.63 5.63 0 0 1 2.307-.424 5.555 5.555 0 0 1 2.802.71 5.8 5.8 0 0 1 2.11 2.04l-2.262 1.354a3.006 3.006 0 0 0-1.137-1.091 2.876 2.876 0 0 0-1.513-.347c-2.023 0-3.342 1.409-3.342 3.53 0 2.12 1.311 3.53 3.342 3.53a2.862 2.862 0 0 0 1.518-.354 2.992 2.992 0 0 0 1.132-1.105l2.262 1.354a5.749 5.749 0 0 1-2.11 2.033 5.505 5.505 0 0 1-2.802.696 5.63 5.63 0 0 1-2.307-.424 5.798 5.798 0 0 1-1.958-1.334 6.042 6.042 0 0 1-1.29-2.027 6.212 6.212 0 0 1-.412-2.39zM62.945 30.002c-.003-.89.248-1.76.723-2.501a4.376 4.376 0 0 1 1.943-1.663 4.197 4.197 0 0 1 2.507-.262 4.292 4.292 0 0 1 2.225 1.226 4.546 4.546 0 0 1 1.191 2.3 4.645 4.645 0 0 1-.244 2.6 4.463 4.463 0 0 1-1.597 2.019 4.23 4.23 0 0 1-2.411.758 4.162 4.162 0 0 1-1.663-.328 4.284 4.284 0 0 1-1.411-.968 4.462 4.462 0 0 1-.94-1.459 4.588 4.588 0 0 1-.323-1.722zm6.218 0a1.997 1.997 0 0 0-.34-1.069 1.894 1.894 0 0 0-.854-.695 1.82 1.82 0 0 0-1.083-.091c-.362.08-.692.27-.95.545a1.973 1.973 0 0 0-.502.998c-.069.377-.029.766.115 1.12.144.353.385.654.693.866.308.213.67.326 1.04.326.253.006.504-.041.739-.14.234-.099.446-.246.623-.434s.314-.412.403-.657c.09-.245.13-.507.116-.769zM79.2 31.696c0 1.953-1.638 2.783-3.406 2.783-1.618 0-2.88-.645-3.52-2.02l2.128-1.258c.087.307.272.574.525.756.253.183.56.27.867.246.587 0 .882-.189.882-.528 0-.93-4.025-.44-4.025-3.375 0-1.848 1.505-2.783 3.208-2.783.64-.02 1.274.137 1.835.456.561.32 1.03.789 1.357 1.359l-2.096 1.174a1.215 1.215 0 0 0-.439-.546 1.152 1.152 0 0 0-.657-.2c-.425 0-.688.167-.688.473 0 .969 4.03.336 4.03 3.463zM83.291 28.204v3.002c0 .73.607.796 1.687.73v2.305c-3.208.34-4.143-.663-4.143-3.035v-3.002h-1.31V25.76h1.31v-1.61l2.456-.762v2.372h1.687v2.444h-1.687zM94.603 25.76v8.48h-2.456v-.796c-.306.347-.682.62-1.102.8-.42.179-.872.26-1.325.236-2.144 0-3.912-1.95-3.912-4.478 0-2.527 1.767-4.48 3.912-4.48a2.98 2.98 0 0 1 1.326.235c.42.179.795.452 1.101.8v-.797h2.456zm-2.456 4.242a2.07 2.07 0 0 0-.35-1.11 1.963 1.963 0 0 0-.884-.723 1.886 1.886 0 0 0-1.123-.096c-.375.083-.718.279-.987.563-.268.284-.45.644-.521 1.035-.072.39-.03.794.118 1.161.149.366.399.68.718.9.32.22.695.337 1.08.337a1.81 1.81 0 0 0 .77-.133c.245-.1.467-.253.65-.448.185-.195.327-.428.418-.684a2 2 0 0 0 .111-.802zM109.58 22.369V34.24h-1.966l-4.418-6.444v6.444h-2.621V22.369h1.962l4.418 6.443v-6.443h2.625zM115.621 32.208c.29.009.579-.044.849-.155s.515-.278.721-.49l1.966 1.169a4.2 4.2 0 0 1-1.572 1.34 4.032 4.032 0 0 1-1.997.408c-2.799 0-4.535-1.95-4.535-4.477a4.482 4.482 0 0 1 .296-1.744 4.372 4.372 0 0 1 .942-1.476c.408-.42.895-.75 1.431-.966a4.068 4.068 0 0 1 1.684-.296c2.391 0 4.159 1.92 4.159 4.482.002.34-.031.68-.097 1.014h-5.813c.311.906 1.064 1.19 1.966 1.19zm1.505-3.09a1.91 1.91 0 0 0-.669-.968 1.8 1.8 0 0 0-1.091-.37c-.393 0-.775.13-1.092.37-.316.241-.55.58-.668.968h3.52zM123.822 28.204v3.002c0 .73.602.796 1.683.73v2.305c-3.209.34-4.139-.663-4.139-3.035v-3.002h-1.311V25.76h1.311v-1.61l2.456-.762v2.372h1.683v2.444h-1.683zM126.326 30.002a4.61 4.61 0 0 1 .723-2.501 4.373 4.373 0 0 1 1.943-1.663 4.197 4.197 0 0 1 2.507-.262 4.293 4.293 0 0 1 2.225 1.226 4.541 4.541 0 0 1 1.191 2.3 4.64 4.64 0 0 1-.244 2.6 4.455 4.455 0 0 1-1.597 2.019 4.229 4.229 0 0 1-2.411.758 4.163 4.163 0 0 1-1.663-.328 4.274 4.274 0 0 1-1.411-.968 4.444 4.444 0 0 1-.94-1.459 4.58 4.58 0 0 1-.323-1.722zm6.218 0a1.995 1.995 0 0 0-.34-1.069 1.9 1.9 0 0 0-.854-.695 1.82 1.82 0 0 0-1.083-.091c-.362.08-.692.27-.951.545a2.01 2.01 0 0 0-.386 2.118c.144.353.385.654.693.866.308.213.67.326 1.04.326.253.006.504-.041.739-.14a1.84 1.84 0 0 0 .623-.434 1.952 1.952 0 0 0 .519-1.426zM30.117 41.983a7.156 7.156 0 0 1-5.149-2.21 7.687 7.687 0 0 1-2.133-5.336c0-.457.175-.895.487-1.218a1.634 1.634 0 0 1 1.176-.505c.44 0 .864.182 1.176.505.312.323.487.761.487 1.218a4.193 4.193 0 0 0 .832 2.52 3.944 3.944 0 0 0 2.15 1.456 3.825 3.825 0 0 0 2.561-.22 4.01 4.01 0 0 0 1.889-1.806c2.104-4.017 5.26-13.96 5.26-24.876a8.224 8.224 0 0 0-2.346-5.596 7.661 7.661 0 0 0-5.453-2.302 7.661 7.661 0 0 0-5.452 2.302 8.223 8.223 0 0 0-2.346 5.596c0 13.07-1.15 21.38-3.613 26.142a7.469 7.469 0 0 1-2.659 3.136 7.1 7.1 0 0 1-3.861 1.192 7.092 7.092 0 0 1-3.882-1.118 7.456 7.456 0 0 1-2.714-3.085C3.01 31.29.988 21.718.988 11.528a11.836 11.836 0 0 1 1.786-6.26 11.25 11.25 0 0 1 4.78-4.252 10.779 10.779 0 0 1 6.243-.882c2.12.335 4.1 1.297 5.704 2.77.176.148.32.33.426.536a1.776 1.776 0 0 1-.227 1.956c-.15.175-.333.316-.537.416a1.62 1.62 0 0 1-1.875-.33 7.685 7.685 0 0 0-3.997-1.938 7.554 7.554 0 0 0-4.373.62A7.885 7.885 0 0 0 5.57 7.141a8.295 8.295 0 0 0-1.252 4.386c0 9.641 1.865 18.617 5.118 24.624a.914.914 0 0 1 .044.088c.322.694.827 1.28 1.457 1.69.63.408 1.36.623 2.103.62a3.869 3.869 0 0 0 2.128-.648 4.071 4.071 0 0 0 1.46-1.73l.05-.096c2.176-4.192 3.236-12.203 3.236-24.548.078-3.004 1.285-5.857 3.363-7.953C25.355 1.479 28.14.306 31.04.306c2.9 0 5.685 1.173 7.763 3.269 2.078 2.096 3.285 4.95 3.363 7.953 0 10.824-2.925 21.333-5.644 26.523a7.434 7.434 0 0 1-2.68 2.878 7.09 7.09 0 0 1-3.724 1.054z"
    fill="#fff" />
</svg>
