<svg width="90" height="90" viewBox="0 0 90 90" fill="none" xmlns="http://www.w3.org/2000/svg">
<path d="M36.2709 36.9373C30.3162 36.9373 28.5648 32.6666 22.61 32.6666C17.3559 32.6666 9.99998 34.4461 10 50.4611C10 66.1848 17.1579 86.7619 25.5646 86.7619C33.621 86.7619 30.6664 79.2289 36.2709 79.2289" stroke="#88A5BA" stroke-width="4" stroke-linecap="round" stroke-linejoin="round"/>
<path d="M35.5704 36.9373C41.5251 36.9373 43.2765 32.6666 49.2313 32.6666C54.4855 32.6666 61.8413 34.4461 61.8413 50.4611C61.8413 66.1848 54.6834 86.7619 46.2768 86.7619C38.2203 86.7619 41.1749 79.2289 35.5704 79.2289" stroke="#88A5BA" stroke-width="4" stroke-linecap="round" stroke-linejoin="round"/>
<path d="M29.1587 15.7618H42.6825V20.7777C42.6825 22.9869 40.8916 24.7777 38.6825 24.7777H33.1587C30.9496 24.7777 29.1587 22.9869 29.1587 20.7777V15.7618Z" stroke="#88A5BA" stroke-width="4" stroke-linecap="round" stroke-linejoin="round"/>
<path d="M24.6509 2.23804H47.1906V13.7618C47.1906 14.8664 46.2951 15.7618 45.1906 15.7618H26.6509C25.5463 15.7618 24.6509 14.8664 24.6509 13.7618V2.23804Z" stroke="#88A5BA" stroke-width="4" stroke-linecap="round" stroke-linejoin="round"/>
<path d="M47.1904 2.23804H77.619C79.4863 2.23804 81 3.75174 81 5.61899V5.61899C81 7.48624 79.4863 8.99994 77.619 8.99994H47.1904V2.23804Z" stroke="#88A5BA" stroke-width="4" stroke-linecap="round" stroke-linejoin="round"/>
<path d="M35.9207 24.7777V29.8491" stroke="#88A5BA" stroke-width="4" stroke-linecap="round" stroke-linejoin="round"/>
</svg>
