<svg width="90" height="90" viewBox="0 0 90 90" fill="none" xmlns="http://www.w3.org/2000/svg">
<path d="M86 38L86 30C86 21.1635 78.8366 14 70 14L20 14C11.1634 14 4 21.1634 4 30L4 38" stroke="#88A5BA" stroke-width="4" stroke-linecap="round" stroke-linejoin="round"/>
<path d="M4 37.5C4 31.701 8.70101 27 14.5 27V27C20.299 27 25 31.701 25 37.5V42.2C25 44.2987 23.2987 46 21.2 46H7.8C5.70132 46 4 44.2987 4 42.2V37.5Z" stroke="#88A5BA" stroke-width="4"/>
<path d="M31 46H28.8C26.7013 46 25 44.2987 25 42.2V37C25 31.4772 29.4772 27 35 27V27C40.5228 27 45 31.4772 45 37V38" stroke="#88A5BA" stroke-width="4"/>
<path d="M31 47C31 41.4772 35.4772 37 41 37V37C46.5228 37 51 41.4772 51 47V52.2C51 54.2987 49.2987 56 47.2 56H34.8C32.7013 56 31 54.2987 31 52.2V47Z" stroke="#88A5BA" stroke-width="4"/>
<path d="M51 46H62.2C64.2987 46 66 44.2987 66 42.2V37.5C66 31.701 61.299 27 55.5 27V27C49.701 27 45 31.701 45 37.5V37.5" stroke="#88A5BA" stroke-width="4"/>
<path d="M66 37C66 31.4772 70.4772 27 76 27V27C81.5228 27 86 31.4772 86 37V42.2C86 44.2987 84.2987 46 82.2 46H69.8C67.7013 46 66 44.2987 66 42.2V37Z" stroke="#88A5BA" stroke-width="4"/>
<path d="M61.9701 56.2425L49 53L58 62.5V83.5C58 85.433 59.567 87 61.5 87C63.433 87 65 85.433 65 83.5V60.1231C65 58.2876 63.7508 56.6877 61.9701 56.2425Z" stroke="#88A5BA" stroke-width="4" stroke-linecap="round" stroke-linejoin="round"/>
</svg>
