<svg width="90" height="90" viewBox="0 0 90 90" fill="none" xmlns="http://www.w3.org/2000/svg">
<path d="M35.3849 8.91281C29.1776 8.91281 27.352 4.53125 21.1447 4.53125C15.6678 4.53125 7.99998 6.35691 8 22.7878C8.00002 38.9199 15.4243 60.0312 24.1875 60.0312C32.5855 60.0312 29.5427 52.3026 35.3849 52.3026" stroke="#88A5BA" stroke-width="4" stroke-linejoin="round"/>
<path d="M34.6547 8.91281C40.8619 8.91281 42.6876 4.53125 48.8948 4.53125C54.3718 4.53125 62.0396 6.35691 62.0396 22.7878C62.0395 24.6683 61.9387 26.6164 61.7465 28.5909M34.6547 52.3026C40.4968 52.3026 37.454 60.0312 45.8521 60.0312C49.3402 60.0312 52.6162 56.6864 55.2962 51.6421" stroke="#88A5BA" stroke-width="4" stroke-linejoin="round"/>
<circle cx="66.9688" cy="42.6875" r="15.0312" stroke="#88A5BA" stroke-width="4"/>
<path d="M66.9688 57.7188V65.8125" stroke="#88A5BA" stroke-width="4" stroke-linecap="round" stroke-linejoin="round"/>
<path d="M70.4375 82C70.4375 83.9157 68.8845 85.4687 66.9687 85.4687V85.4687C65.053 85.4687 63.5 83.9157 63.5 82L63.5 66.8125C63.5 66.2602 63.9477 65.8125 64.5 65.8125L69.4375 65.8125C69.9898 65.8125 70.4375 66.2602 70.4375 66.8125L70.4375 82Z" stroke="#88A5BA" stroke-width="4"/>
</svg>
