<svg width="90" height="90" viewBox="0 0 90 90" fill="none" xmlns="http://www.w3.org/2000/svg">
<path d="M45.4487 15.3846C37.8206 15.3846 35.577 10 27.9488 10C21.218 10 11.7949 12.2436 11.7949 32.4359C11.7949 36.1786 12.0188 40.1394 12.4545 44.1026H45.4487" stroke="#88A5BA" stroke-width="4" stroke-linejoin="round"/>
<path d="M44.5514 15.3846C52.1796 15.3846 54.4232 10 62.0514 10C68.7821 10 78.2052 12.2436 78.2052 32.4359C78.2052 36.1786 77.9813 40.1394 77.5456 44.1026H45.4488" stroke="#88A5BA" stroke-width="4" stroke-linejoin="round"/>
<path d="M18.9744 44.1025H70.1282L68.3333 53.9743H20.7692L18.9744 44.1025Z" stroke="#88A5BA" stroke-width="4" stroke-linejoin="round"/>
<path d="M30.6411 53.9744H58.4616L57.4855 74.6154L44.5514 80L31.6173 74.6154L30.6411 53.9744Z" stroke="#88A5BA" stroke-width="4" stroke-linejoin="round"/>
<path d="M31.5385 71.0256L57.5641 68.3333" stroke="#88A5BA" stroke-width="4" stroke-linejoin="round"/>
<path d="M31.5385 62.9487L57.5641 60.2564" stroke="#88A5BA" stroke-width="4" stroke-linejoin="round"/>
</svg>
