<svg width="90" height="90" viewBox="0 0 90 90" fill="none" xmlns="http://www.w3.org/2000/svg">
<path d="M86 54L86 46C86 37.1635 78.8366 30 70 30L20 30C11.1634 30 4 37.1634 4 46L4 54" stroke="#88A5BA" stroke-width="4" stroke-linecap="round" stroke-linejoin="round"/>
<path d="M4 53.5C4 47.701 8.70101 43 14.5 43V43C20.299 43 25 47.701 25 53.5V58.2C25 60.2987 23.2987 62 21.2 62H7.8C5.70132 62 4 60.2987 4 58.2V53.5Z" stroke="#88A5BA" stroke-width="4"/>
<path d="M25 53C25 47.4772 29.4772 43 35 43V43C40.5228 43 45 47.4772 45 53V58.2C45 60.2987 43.2987 62 41.2 62H28.8C26.7013 62 25 60.2987 25 58.2V53Z" stroke="#88A5BA" stroke-width="4"/>
<path d="M17 24C17 21.7909 18.7909 20 21 20V20C23.2091 20 25 21.7909 25 24V28C25 29.1046 24.1046 30 23 30H19C17.8954 30 17 29.1046 17 28V24Z" stroke="#88A5BA" stroke-width="4"/>
<path d="M33 24C33 21.7909 34.7909 20 37 20V20C39.2091 20 41 21.7909 41 24V28C41 29.1046 40.1046 30 39 30H35C33.8954 30 33 29.1046 33 28V24Z" stroke="#88A5BA" stroke-width="4"/>
<path d="M49 24C49 21.7909 50.7909 20 53 20V20C55.2091 20 57 21.7909 57 24V28C57 29.1046 56.1046 30 55 30H51C49.8954 30 49 29.1046 49 28V24Z" stroke="#88A5BA" stroke-width="4"/>
<path d="M65 24C65 21.7909 66.7909 20 69 20V20C71.2091 20 73 21.7909 73 24V28C73 29.1046 72.1046 30 71 30H67C65.8954 30 65 29.1046 65 28V24Z" stroke="#88A5BA" stroke-width="4"/>
<path d="M45 53.5C45 47.701 49.701 43 55.5 43V43C61.299 43 66 47.701 66 53.5V58.2C66 60.2987 64.2987 62 62.2 62H48.8C46.7013 62 45 60.2987 45 58.2V53.5Z" stroke="#88A5BA" stroke-width="4"/>
<path d="M66 53C66 47.4772 70.4772 43 76 43V43C81.5228 43 86 47.4772 86 53V58.2C86 60.2987 84.2987 62 82.2 62H69.8C67.7013 62 66 60.2987 66 58.2V53Z" stroke="#88A5BA" stroke-width="4"/>
</svg>
